<?xml version="1.0" encoding="utf-8"?>
<svg version="1.1" xmlns:xlink="http://www.w3.org/1999/xlink" width="21px" height="30px" xmlns="http://www.w3.org/2000/svg">
  <g transform="matrix(1 0 0 1 -70 -380 )">
    <path d="M 21 5.949876237623764  C 21 6.438737623762374  20.829861111111114 6.856435643564353  20.489583333333332 7.202970297029703  L 15 12.623762376237625  L 15 27.92079207920792  C 15.166666666666666 28.49009900990099  14.966145833333334 28.978960396039604  14.565104166666666 29.387376237623762  C 14.1640625 29.79579207920792  13.68402777777778 30  13.125 30  C 12.565972222222223 30  12.0859375 29.79579207920792  11.684895833333334 29.387376237623762  C 11.283854166666666 28.978960396039604  11.083333333333334 28.49009900990099  11.083333333333334 27.92079207920792  L 11.083333333333334 20.79207920792079  L 9.916666666666666 20.79207920792079  L 9.916666666666666 27.92079207920792  C 9.916666666666666 28.49009900990099  9.716145833333334 28.978960396039604  9.315104166666666 29.387376237623762  C 8.9140625 29.79579207920792  8.43402777777778 30  7.875 30  C 7.315972222222222 30  6.835937500000001 29.79579207920792  6.434895833333333 29.387376237623762  C 6.033854166666667 28.978960396039604  5.833333333333334 28.49009900990099  6 27.92079207920792  L 6 12.623762376237625  L 0.5104166666666666 7.202970297029703  C 0.17013888888888906 6.856435643564353  0 6.435643564356433  0 5.940594059405939  C 0 5.445544554455445  0.17013888888888906 5.024752475247522  0.5104166666666666 4.678217821782179  C 0.8628472222222224 4.33168316831683  1.2790798611111114 4.158415841584159  1.7591145833333333 4.158415841584159  C 2.239149305555556 4.158415841584159  2.649305555555556 4.33168316831683  2.989583333333333 4.678217821782179  L 7.145833333333334 8.910891089108912  L 13.854166666666666 8.910891089108912  L 18.010416666666664 4.678217821782179  C 18.350694444444446 4.33168316831683  18.76388888888889 4.158415841584159  19.25 4.158415841584159  C 19.736111111111114 4.158415841584159  20.14930555555556 4.33168316831683  20.489583333333332 4.678217821782179  C 20.829861111111114 5.0371287128712865  21 5.461014851485146  21 5.949876237623764  Z M 13.389322916666668 1.215965346534652  C 14.185329861111112 2.0266089108910856  14.583333333333336 3.0074257425742568  14.583333333333332 4.158415841584159  C 14.583333333333336 5.309405940594061  14.185329861111112 6.290222772277225  13.389322916666668 7.100866336633662  C 12.593315972222223 7.9115099009900955  11.630208333333332 8.316831683168317  10.5 8.316831683168317  C 9.369791666666668 8.316831683168317  8.406684027777779 7.9115099009900955  7.610677083333333 7.100866336633662  C 6.814670138888889 6.290222772277225  6.416666666666667 5.309405940594061  6.416666666666667 4.158415841584159  C 6.416666666666667 3.0074257425742568  6.814670138888889 2.0266089108910856  7.610677083333333 1.215965346534652  C 8.406684027777779 0.40532178217821513  9.369791666666668 0  10.5 0  C 11.630208333333332 0  12.593315972222223 0.40532178217821513  13.389322916666668 1.215965346534652  Z " fill-rule="nonzero" fill="#000000" stroke="none" transform="matrix(1 0 0 1 70 380 )" />
  </g>
</svg>