<?xml version="1.0" encoding="utf-8"?>
<svg version="1.1" xmlns:xlink="http://www.w3.org/1999/xlink" width="25px" height="26px" xmlns="http://www.w3.org/2000/svg">
  <g transform="matrix(1 0 0 1 -70 -311 )">
    <path d="M 11.527035056446822 8.492462311557787  C 12.081600316894434 7.882747068676714  12.358882947118241 7.142378559463985  12.358882947118241 6.271356783919599  C 12.358882947118241 5.400335008375208  12.081600316894434 4.659966499162478  11.527035056446822 4.050251256281407  C 10.97246979599921 3.4405360134003335  10.299069122598535 3.1356783919597984  9.506833036244801 3.1356783919597984  C 8.714596949891067 3.1356783919597984  8.041196276490394 3.4405360134003335  7.4866310160427805 4.050251256281407  C 6.932065755595168 4.659966499162478  6.6547831253713605 5.400335008375208  6.6547831253713605 6.271356783919599  C 6.6547831253713605 6.728643216080401  6.748861160625867 7.180485762144052  6.937017231134879 7.626884422110553  C 6.5309962368785905 7.4200167504187595  6.120023767082591 7.316582914572864  5.704099821746881 7.316582914572864  C 4.911863735393148 7.316582914572864  4.238463061992475 7.621440536013397  3.6838978015448602 8.231155778894474  C 3.1293325410972477 8.840871021775545  2.8520499108734403 9.581239530988274  2.8520499108734403 10.452261306532662  C 2.8520499108734403 11.323283082077051  3.1293325410972477 12.06365159128978  3.6838978015448602 12.673366834170855  C 4.238463061992475 13.283082077051926  4.911863735393148 13.587939698492463  5.704099821746881 13.587939698492463  C 6.4963359081006145 13.587939698492463  7.1697365815012875 13.283082077051926  7.724301841948901 12.673366834170855  C 8.278867102396514 12.06365159128978  8.55614973262032 11.323283082077051  8.55614973262032 10.452261306532662  C 8.55614973262032 9.994974874371858  8.462071697365817 9.543132328308207  8.273915626856803 9.09673366834171  C 8.679936621113091 9.303601340033499  9.090909090909092 9.407035175879397  9.506833036244801 9.407035175879397  C 10.299069122598535 9.407035175879397  10.97246979599921 9.102177554438859  11.527035056446822 8.492462311557787  Z M 24.57664884135472 17.099246231155778  C 24.858882947118243 17.45854271356784  25.000000000000007 17.68174204355109  25 17.768844221105528  C 25.000000000000007 17.953936348408707  24.757377698554173 18.31323283082077  24.272133095662507 18.84673366834171  C 23.786888492770846 19.38023450586265  23.460091107149932 19.646984924623116  23.291740938799762 19.646984924623116  C 23.202614379084967 19.646984924623116  23.06149732620321 19.559882747068677  22.868389780154487 19.3856783919598  C 22.675282234105765 19.21147403685092  22.49455337690632 19.03182579564489  22.32620320855615 18.84673366834171  C 22.157853040205982 18.661641541038527  21.967221231927116 18.44388609715243  21.754307783719547 18.19346733668342  C 21.541394335511985 17.9430485762144  21.420083184789068 17.801507537688444  21.390374331550802 17.768844221105528  L 19.964349376114082 19.33668341708543  L 23.232323232323232 22.92964824120603  C 23.50960586254704 23.234505862646568  23.648247177658945 23.604690117252932  23.648247177658945 24.040201005025125  C 23.648247177658945 24.49748743718593  23.45513963161022 24.938442211055275  23.068924539512775 25.363065326633166  C 22.68270944741533 25.787688442211056  22.281639928698752 26  21.865715983363042 26  C 21.469597940186176 26  21.13289760348584 25.847571189279734  20.855614973262032 25.542713567839197  L 10.888294711824123 14.584170854271358  C 9.145375321845911 16.010469011725295  7.338086749851455 16.723618090452263  5.466428995840761 16.723618090452263  C 3.8522479698950294 16.723618090452263  2.5376312141018027 16.16561976549414  1.5225787284610817 15.049623115577887  C 0.5075262428203606 13.933626465661641  0 12.48827470686767  0 10.71356783919598  C 0 8.9715242881072  0.47039017627252944 7.267587939698493  1.4111705288175878 5.601758793969848  C 2.3519508813626464 3.9359296482412054  3.5799168152109333 2.585845896147402  5.095068330362448 1.5515075376884435  C 6.610219845513964 0.5171691792294792  8.160031689443455 0  9.74450386215092 0  C 11.358684888096654 0  12.67330164388988 0.5579983249581217  13.6883541295306 1.673994974874371  C 14.703406615171321 2.789991624790617  15.210932857991683 4.2353433835845875  15.210932857991683 6.010050251256281  C 15.210932857991683 8.0678391959799  14.562289562289562 10.054857621440535  13.265002970885323 11.971105527638192  L 18.538324420677363 17.768844221105528  L 19.964349376114082 16.201005025125628  C 19.934640522875817 16.168341708542716  19.805902158843338 16.03496649916248  19.578134284016638 15.800879396984923  C 19.350366409189938 15.566792294807367  19.152307387601507 15.357202680066997  18.983957219251337 15.17211055276382  C 18.81560705090117 14.987018425460638  18.652208358090714 14.788316582914574  18.493761140819963 14.576005025125628  C 18.335313923549222 14.363693467336683  18.256090314913845 14.20854271356784  18.256090314913845 14.110552763819095  C 18.256090314913845 13.925460636515913  18.49871261635968 13.56616415410385  18.983957219251337 13.032663316582914  C 19.469201822143 12.499162479061974  19.795999207763913 12.232412060301506  19.964349376114082 12.232412060301506  C 20.093087740146565 12.232412060301506  20.206971677559913 12.28685092127303  20.30600118835413 12.39572864321608  C 20.365418894830658 12.461055276381911  20.59318676965736 12.70330820770519  20.989304812834224 13.12248743718593  C 21.385422856011093 13.541666666666664  21.79144385026738 13.974455611390283  22.20736779560309 14.42085427135678  C 22.6232917409388 14.867252931323282  23.051594375123788 15.33542713567839  23.492275698158053 15.825376884422113  C 23.93295702119232 16.315326633165828  24.29441473559121 16.73994974874372  24.57664884135472 17.099246231155778  Z " fill-rule="nonzero" fill="#000000" stroke="none" transform="matrix(1 0 0 1 70 311 )" />
  </g>
</svg>